<svg width="330" height="221" viewBox="0 0 330 221" fill="none" xmlns="http://www.w3.org/2000/svg">
<rect x="3.09412" y="0.5" width="325.896" height="220" rx="24.5" fill="white" stroke="#C6C6C6"/>
<line y1="42.4331" x2="329.51" y2="42.4331" stroke="#C6C6C6"/>
<path d="M35.716 31.9751V17.5751H44.246V19.6651H37.806V23.7251H43.046V25.8251H37.806V31.9751H35.716ZM50.5451 32.2751C49.4718 32.2751 48.5284 32.0418 47.7151 31.5751C46.9084 31.1018 46.2784 30.4451 45.8251 29.6051C45.3784 28.7584 45.1551 27.7784 45.1551 26.6651C45.1551 25.4851 45.3751 24.4618 45.8151 23.5951C46.2618 22.7284 46.8818 22.0584 47.6751 21.5851C48.4684 21.1118 49.3918 20.8751 50.4451 20.8751C51.5451 20.8751 52.4818 21.1318 53.2551 21.6451C54.0284 22.1518 54.6051 22.8751 54.9851 23.8151C55.3718 24.7551 55.5251 25.8718 55.4451 27.1651H53.3551V26.4051C53.3418 25.1518 53.1018 24.2251 52.6351 23.6251C52.1751 23.0251 51.4718 22.7251 50.5251 22.7251C49.4784 22.7251 48.6918 23.0551 48.1651 23.7151C47.6384 24.3751 47.3751 25.3284 47.3751 26.5751C47.3751 27.7618 47.6384 28.6818 48.1651 29.3351C48.6918 29.9818 49.4518 30.3051 50.4451 30.3051C51.0984 30.3051 51.6618 30.1584 52.1351 29.8651C52.6151 29.5651 52.9884 29.1384 53.2551 28.5851L55.3051 29.2351C54.8851 30.2018 54.2484 30.9518 53.3951 31.4851C52.5418 32.0118 51.5918 32.2751 50.5451 32.2751ZM46.6951 27.1651V25.5351H54.4051V27.1651H46.6951ZM62.3087 32.2751C61.202 32.2751 60.262 32.0284 59.4887 31.5351C58.7154 31.0418 58.122 30.3651 57.7087 29.5051C57.302 28.6451 57.0954 27.6684 57.0887 26.5751C57.0954 25.4618 57.3087 24.4784 57.7287 23.6251C58.1487 22.7651 58.7487 22.0918 59.5287 21.6051C60.3087 21.1184 61.2454 20.8751 62.3387 20.8751C63.5187 20.8751 64.5254 21.1684 65.3587 21.7551C66.1987 22.3418 66.752 23.1451 67.0187 24.1651L64.9387 24.7651C64.732 24.1584 64.392 23.6884 63.9187 23.3551C63.452 23.0151 62.9154 22.8451 62.3087 22.8451C61.622 22.8451 61.0587 23.0084 60.6187 23.3351C60.1787 23.6551 59.852 24.0951 59.6387 24.6551C59.4254 25.2151 59.3154 25.8551 59.3087 26.5751C59.3154 27.6884 59.5687 28.5884 60.0687 29.2751C60.5754 29.9618 61.322 30.3051 62.3087 30.3051C62.982 30.3051 63.5254 30.1518 63.9387 29.8451C64.3587 29.5318 64.6787 29.0851 64.8987 28.5051L67.0187 29.0051C66.6654 30.0584 66.082 30.8684 65.2687 31.4351C64.4554 31.9951 63.4687 32.2751 62.3087 32.2751ZM76.6359 31.9751V26.6651C76.6359 26.2451 76.5992 25.8151 76.5259 25.3751C76.4592 24.9284 76.3259 24.5151 76.1259 24.1351C75.9326 23.7551 75.6559 23.4484 75.2959 23.2151C74.9426 22.9818 74.4792 22.8651 73.9059 22.8651C73.5326 22.8651 73.1792 22.9284 72.8459 23.0551C72.5126 23.1751 72.2192 23.3718 71.9659 23.6451C71.7192 23.9184 71.5226 24.2784 71.3759 24.7251C71.2359 25.1718 71.1659 25.7151 71.1659 26.3551L69.8659 25.8651C69.8659 24.8851 70.0492 24.0218 70.4159 23.2751C70.7826 22.5218 71.3092 21.9351 71.9959 21.5151C72.6826 21.0951 73.5126 20.8851 74.4859 20.8851C75.2326 20.8851 75.8592 21.0051 76.3659 21.2451C76.8726 21.4851 77.2826 21.8018 77.5959 22.1951C77.9159 22.5818 78.1592 23.0051 78.3259 23.4651C78.4926 23.9251 78.6059 24.3751 78.6659 24.8151C78.7259 25.2551 78.7559 25.6418 78.7559 25.9751V31.9751H76.6359ZM69.0459 31.9751V17.5751H70.9159V25.3451H71.1659V31.9751H69.0459ZM84.4106 32.2751C83.6106 32.2751 82.9406 32.1284 82.4006 31.8351C81.8606 31.5351 81.4506 31.1418 81.1706 30.6551C80.8972 30.1618 80.7606 29.6218 80.7606 29.0351C80.7606 28.4884 80.8572 28.0084 81.0506 27.5951C81.2439 27.1818 81.5306 26.8318 81.9106 26.5451C82.2906 26.2518 82.7572 26.0151 83.3106 25.8351C83.7906 25.6951 84.3339 25.5718 84.9406 25.4651C85.5472 25.3584 86.1839 25.2584 86.8506 25.1651C87.5239 25.0718 88.1906 24.9784 88.8506 24.8851L88.0906 25.3051C88.1039 24.4584 87.9239 23.8318 87.5506 23.4251C87.1839 23.0118 86.5506 22.8051 85.6506 22.8051C85.0839 22.8051 84.5639 22.9384 84.0906 23.2051C83.6172 23.4651 83.2872 23.8984 83.1006 24.5051L81.1506 23.9051C81.4172 22.9784 81.9239 22.2418 82.6706 21.6951C83.4239 21.1484 84.4239 20.8751 85.6706 20.8751C86.6372 20.8751 87.4772 21.0418 88.1906 21.3751C88.9106 21.7018 89.4372 22.2218 89.7706 22.9351C89.9439 23.2884 90.0506 23.6618 90.0906 24.0551C90.1306 24.4484 90.1506 24.8718 90.1506 25.3251V31.9751H88.3006V29.5051L88.6606 29.8251C88.2139 30.6518 87.6439 31.2684 86.9506 31.6751C86.2639 32.0751 85.4172 32.2751 84.4106 32.2751ZM84.7806 30.5651C85.3739 30.5651 85.8839 30.4618 86.3106 30.2551C86.7372 30.0418 87.0806 29.7718 87.3406 29.4451C87.6006 29.1184 87.7706 28.7784 87.8506 28.4251C87.9639 28.1051 88.0272 27.7451 88.0406 27.3451C88.0606 26.9451 88.0706 26.6251 88.0706 26.3851L88.7506 26.6351C88.0906 26.7351 87.4906 26.8251 86.9506 26.9051C86.4106 26.9851 85.9206 27.0651 85.4806 27.1451C85.0472 27.2184 84.6606 27.3084 84.3206 27.4151C84.0339 27.5151 83.7772 27.6351 83.5506 27.7751C83.3306 27.9151 83.1539 28.0851 83.0206 28.2851C82.8939 28.4851 82.8306 28.7284 82.8306 29.0151C82.8306 29.2951 82.9006 29.5551 83.0406 29.7951C83.1806 30.0284 83.3939 30.2151 83.6806 30.3551C83.9672 30.4951 84.3339 30.5651 84.7806 30.5651ZM92.7473 31.9751V21.1751H94.6073V23.7951L94.3473 23.4551C94.4806 23.1084 94.654 22.7918 94.8673 22.5051C95.0806 22.2118 95.3273 21.9718 95.6073 21.7851C95.8806 21.5851 96.184 21.4318 96.5173 21.3251C96.8573 21.2118 97.204 21.1451 97.5573 21.1251C97.9106 21.0984 98.2506 21.1151 98.5773 21.1751V23.1351C98.224 23.0418 97.8306 23.0151 97.3973 23.0551C96.9706 23.0951 96.5773 23.2318 96.2173 23.4651C95.8773 23.6851 95.6073 23.9518 95.4073 24.2651C95.214 24.5784 95.074 24.9284 94.9873 25.3151C94.9006 25.6951 94.8573 26.0984 94.8573 26.5251V31.9751H92.7473ZM107.536 32.2751C106.736 32.2751 106.066 32.1284 105.526 31.8351C104.986 31.5351 104.576 31.1418 104.296 30.6551C104.022 30.1618 103.886 29.6218 103.886 29.0351C103.886 28.4884 103.982 28.0084 104.176 27.5951C104.369 27.1818 104.656 26.8318 105.036 26.5451C105.416 26.2518 105.882 26.0151 106.436 25.8351C106.916 25.6951 107.459 25.5718 108.066 25.4651C108.672 25.3584 109.309 25.2584 109.976 25.1651C110.649 25.0718 111.316 24.9784 111.976 24.8851L111.216 25.3051C111.229 24.4584 111.049 23.8318 110.676 23.4251C110.309 23.0118 109.676 22.8051 108.776 22.8051C108.209 22.8051 107.689 22.9384 107.216 23.2051C106.742 23.4651 106.412 23.8984 106.226 24.5051L104.276 23.9051C104.542 22.9784 105.049 22.2418 105.796 21.6951C106.549 21.1484 107.549 20.8751 108.796 20.8751C109.762 20.8751 110.602 21.0418 111.316 21.3751C112.036 21.7018 112.562 22.2218 112.896 22.9351C113.069 23.2884 113.176 23.6618 113.216 24.0551C113.256 24.4484 113.276 24.8718 113.276 25.3251V31.9751H111.426V29.5051L111.786 29.8251C111.339 30.6518 110.769 31.2684 110.076 31.6751C109.389 32.0751 108.542 32.2751 107.536 32.2751ZM107.906 30.5651C108.499 30.5651 109.009 30.4618 109.436 30.2551C109.862 30.0418 110.206 29.7718 110.466 29.4451C110.726 29.1184 110.896 28.7784 110.976 28.4251C111.089 28.1051 111.152 27.7451 111.166 27.3451C111.186 26.9451 111.196 26.6251 111.196 26.3851L111.876 26.6351C111.216 26.7351 110.616 26.8251 110.076 26.9051C109.536 26.9851 109.046 27.0651 108.606 27.1451C108.172 27.2184 107.786 27.3084 107.446 27.4151C107.159 27.5151 106.902 27.6351 106.676 27.7751C106.456 27.9151 106.279 28.0851 106.146 28.2851C106.019 28.4851 105.956 28.7284 105.956 29.0151C105.956 29.2951 106.026 29.5551 106.166 29.7951C106.306 30.0284 106.519 30.2151 106.806 30.3551C107.092 30.4951 107.459 30.5651 107.906 30.5651ZM115.872 31.9751V21.1751H117.732V23.7951L117.472 23.4551C117.606 23.1084 117.779 22.7918 117.992 22.5051C118.206 22.2118 118.452 21.9718 118.732 21.7851C119.006 21.5851 119.309 21.4318 119.642 21.3251C119.982 21.2118 120.329 21.1451 120.682 21.1251C121.036 21.0984 121.376 21.1151 121.702 21.1751V23.1351C121.349 23.0418 120.956 23.0151 120.522 23.0551C120.096 23.0951 119.702 23.2318 119.342 23.4651C119.002 23.6851 118.732 23.9518 118.532 24.2651C118.339 24.5784 118.199 24.9284 118.112 25.3151C118.026 25.6951 117.982 26.0984 117.982 26.5251V31.9751H115.872ZM136.547 31.9751L136.557 25.2451C136.557 24.4651 136.357 23.8584 135.957 23.4251C135.557 22.9851 135.03 22.7651 134.377 22.7651C133.977 22.7651 133.61 22.8584 133.277 23.0451C132.95 23.2251 132.683 23.4984 132.477 23.8651C132.277 24.2251 132.177 24.6784 132.177 25.2251L131.167 24.7151C131.153 23.9551 131.313 23.2884 131.647 22.7151C131.987 22.1418 132.447 21.6984 133.027 21.3851C133.607 21.0651 134.257 20.9051 134.977 20.9051C136.143 20.9051 137.047 21.2551 137.687 21.9551C138.327 22.6551 138.647 23.5851 138.647 24.7451L138.637 31.9751H136.547ZM123.597 31.9751V21.1751H125.457V24.2951H125.697V31.9751H123.597ZM130.077 31.9751L130.087 25.2851C130.087 24.4984 129.887 23.8818 129.487 23.4351C129.093 22.9884 128.563 22.7651 127.897 22.7651C127.237 22.7651 126.703 22.9918 126.297 23.4451C125.897 23.8984 125.697 24.4918 125.697 25.2251L124.697 24.5851C124.697 23.8784 124.867 23.2484 125.207 22.6951C125.547 22.1418 126.007 21.7051 126.587 21.3851C127.167 21.0651 127.823 20.9051 128.557 20.9051C129.323 20.9051 129.977 21.0684 130.517 21.3951C131.057 21.7151 131.467 22.1651 131.747 22.7451C132.033 23.3251 132.177 23.9984 132.177 24.7651L132.167 31.9751H130.077ZM146.523 19.5751H144.883L146.303 16.0751H147.943L146.523 19.5751ZM144.293 32.2751C143.493 32.2751 142.823 32.1284 142.283 31.8351C141.743 31.5351 141.333 31.1418 141.053 30.6551C140.78 30.1618 140.643 29.6218 140.643 29.0351C140.643 28.4884 140.74 28.0084 140.933 27.5951C141.127 27.1818 141.413 26.8318 141.793 26.5451C142.173 26.2518 142.64 26.0151 143.193 25.8351C143.673 25.6951 144.217 25.5718 144.823 25.4651C145.43 25.3584 146.067 25.2584 146.733 25.1651C147.407 25.0718 148.073 24.9784 148.733 24.8851L147.973 25.3051C147.987 24.4584 147.807 23.8318 147.433 23.4251C147.067 23.0118 146.433 22.8051 145.533 22.8051C144.967 22.8051 144.447 22.9384 143.973 23.2051C143.5 23.4651 143.17 23.8984 142.983 24.5051L141.033 23.9051C141.3 22.9784 141.807 22.2418 142.553 21.6951C143.307 21.1484 144.307 20.8751 145.553 20.8751C146.52 20.8751 147.36 21.0418 148.073 21.3751C148.793 21.7018 149.32 22.2218 149.653 22.9351C149.827 23.2884 149.933 23.6618 149.973 24.0551C150.013 24.4484 150.033 24.8718 150.033 25.3251V31.9751H148.183V29.5051L148.543 29.8251C148.097 30.6518 147.527 31.2684 146.833 31.6751C146.147 32.0751 145.3 32.2751 144.293 32.2751ZM144.663 30.5651C145.257 30.5651 145.767 30.4618 146.193 30.2551C146.62 30.0418 146.963 29.7718 147.223 29.4451C147.483 29.1184 147.653 28.7784 147.733 28.4251C147.847 28.1051 147.91 27.7451 147.923 27.3451C147.943 26.9451 147.953 26.6251 147.953 26.3851L148.633 26.6351C147.973 26.7351 147.373 26.8251 146.833 26.9051C146.293 26.9851 145.803 27.0651 145.363 27.1451C144.93 27.2184 144.543 27.3084 144.203 27.4151C143.917 27.5151 143.66 27.6351 143.433 27.7751C143.213 27.9151 143.037 28.0851 142.903 28.2851C142.777 28.4851 142.713 28.7284 142.713 29.0151C142.713 29.2951 142.783 29.5551 142.923 29.7951C143.063 30.0284 143.277 30.2151 143.563 30.3551C143.85 30.4951 144.217 30.5651 144.663 30.5651ZM152.63 31.9751V21.1751H154.49V23.7951L154.23 23.4551C154.363 23.1084 154.537 22.7918 154.75 22.5051C154.963 22.2118 155.21 21.9718 155.49 21.7851C155.763 21.5851 156.067 21.4318 156.4 21.3251C156.74 21.2118 157.087 21.1451 157.44 21.1251C157.793 21.0984 158.133 21.1151 158.46 21.1751V23.1351C158.107 23.0418 157.713 23.0151 157.28 23.0551C156.853 23.0951 156.46 23.2318 156.1 23.4651C155.76 23.6851 155.49 23.9518 155.29 24.2651C155.097 24.5784 154.957 24.9284 154.87 25.3151C154.783 25.6951 154.74 26.0984 154.74 26.5251V31.9751H152.63ZM160.564 19.4051V17.3751H162.654V19.4051H160.564ZM160.564 31.9751V21.1751H162.654V31.9751H160.564ZM170.347 32.2751C169.267 32.2751 168.331 32.0318 167.537 31.5451C166.744 31.0584 166.131 30.3884 165.697 29.5351C165.271 28.6751 165.057 27.6851 165.057 26.5651C165.057 25.4384 165.277 24.4484 165.717 23.5951C166.157 22.7351 166.774 22.0684 167.567 21.5951C168.361 21.1151 169.287 20.8751 170.347 20.8751C171.427 20.8751 172.364 21.1184 173.157 21.6051C173.951 22.0918 174.564 22.7618 174.997 23.6151C175.431 24.4684 175.647 25.4518 175.647 26.5651C175.647 27.6918 175.427 28.6851 174.987 29.5451C174.554 30.3984 173.941 31.0684 173.147 31.5551C172.354 32.0351 171.421 32.2751 170.347 32.2751ZM170.347 30.3051C171.381 30.3051 172.151 29.9584 172.657 29.2651C173.171 28.5651 173.427 27.6651 173.427 26.5651C173.427 25.4384 173.167 24.5384 172.647 23.8651C172.134 23.1851 171.367 22.8451 170.347 22.8451C169.647 22.8451 169.071 23.0051 168.617 23.3251C168.164 23.6384 167.827 24.0751 167.607 24.6351C167.387 25.1884 167.277 25.8318 167.277 26.5651C167.277 27.6984 167.537 28.6051 168.057 29.2851C168.577 29.9651 169.341 30.3051 170.347 30.3051ZM189.429 31.9751V26.6651C189.429 26.2451 189.392 25.8151 189.319 25.3751C189.252 24.9284 189.119 24.5151 188.919 24.1351C188.726 23.7551 188.449 23.4484 188.089 23.2151C187.736 22.9818 187.272 22.8651 186.699 22.8651C186.326 22.8651 185.972 22.9284 185.639 23.0551C185.306 23.1751 185.012 23.3718 184.759 23.6451C184.512 23.9184 184.316 24.2784 184.169 24.7251C184.029 25.1718 183.959 25.7151 183.959 26.3551L182.659 25.8651C182.659 24.8851 182.842 24.0218 183.209 23.2751C183.576 22.5218 184.102 21.9351 184.789 21.5151C185.476 21.0951 186.306 20.8851 187.279 20.8851C188.026 20.8851 188.652 21.0051 189.159 21.2451C189.666 21.4851 190.076 21.8018 190.389 22.1951C190.709 22.5818 190.952 23.0051 191.119 23.4651C191.286 23.9251 191.399 24.3751 191.459 24.8151C191.519 25.2551 191.549 25.6418 191.549 25.9751V31.9751H189.429ZM181.839 31.9751V21.1751H183.709V24.2951H183.959V31.9751H181.839ZM198.707 32.2751C197.627 32.2751 196.69 32.0318 195.897 31.5451C195.103 31.0584 194.49 30.3884 194.057 29.5351C193.63 28.6751 193.417 27.6851 193.417 26.5651C193.417 25.4384 193.637 24.4484 194.077 23.5951C194.517 22.7351 195.133 22.0684 195.927 21.5951C196.72 21.1151 197.647 20.8751 198.707 20.8751C199.787 20.8751 200.723 21.1184 201.517 21.6051C202.31 22.0918 202.923 22.7618 203.357 23.6151C203.79 24.4684 204.007 25.4518 204.007 26.5651C204.007 27.6918 203.787 28.6851 203.347 29.5451C202.913 30.3984 202.3 31.0684 201.507 31.5551C200.713 32.0351 199.78 32.2751 198.707 32.2751ZM198.707 30.3051C199.74 30.3051 200.51 29.9584 201.017 29.2651C201.53 28.5651 201.787 27.6651 201.787 26.5651C201.787 25.4384 201.527 24.5384 201.007 23.8651C200.493 23.1851 199.727 22.8451 198.707 22.8451C198.007 22.8451 197.43 23.0051 196.977 23.3251C196.523 23.6384 196.187 24.0751 195.967 24.6351C195.747 25.1884 195.637 25.8318 195.637 26.5651C195.637 27.6984 195.897 28.6051 196.417 29.2851C196.937 29.9651 197.7 30.3051 198.707 30.3051ZM208.734 31.9751L204.814 21.1751H206.924L209.794 29.3551L212.664 21.1751H214.774L210.854 31.9751H208.734ZM219.02 32.2751C218.22 32.2751 217.55 32.1284 217.01 31.8351C216.47 31.5351 216.06 31.1418 215.78 30.6551C215.507 30.1618 215.37 29.6218 215.37 29.0351C215.37 28.4884 215.467 28.0084 215.66 27.5951C215.853 27.1818 216.14 26.8318 216.52 26.5451C216.9 26.2518 217.367 26.0151 217.92 25.8351C218.4 25.6951 218.943 25.5718 219.55 25.4651C220.157 25.3584 220.793 25.2584 221.46 25.1651C222.133 25.0718 222.8 24.9784 223.46 24.8851L222.7 25.3051C222.713 24.4584 222.533 23.8318 222.16 23.4251C221.793 23.0118 221.16 22.8051 220.26 22.8051C219.693 22.8051 219.173 22.9384 218.7 23.2051C218.227 23.4651 217.897 23.8984 217.71 24.5051L215.76 23.9051C216.027 22.9784 216.533 22.2418 217.28 21.6951C218.033 21.1484 219.033 20.8751 220.28 20.8751C221.247 20.8751 222.087 21.0418 222.8 21.3751C223.52 21.7018 224.047 22.2218 224.38 22.9351C224.553 23.2884 224.66 23.6618 224.7 24.0551C224.74 24.4484 224.76 24.8718 224.76 25.3251V31.9751H222.91V29.5051L223.27 29.8251C222.823 30.6518 222.253 31.2684 221.56 31.6751C220.873 32.0751 220.027 32.2751 219.02 32.2751ZM219.39 30.5651C219.983 30.5651 220.493 30.4618 220.92 30.2551C221.347 30.0418 221.69 29.7718 221.95 29.4451C222.21 29.1184 222.38 28.7784 222.46 28.4251C222.573 28.1051 222.637 27.7451 222.65 27.3451C222.67 26.9451 222.68 26.6251 222.68 26.3851L223.36 26.6351C222.7 26.7351 222.1 26.8251 221.56 26.9051C221.02 26.9851 220.53 27.0651 220.09 27.1451C219.657 27.2184 219.27 27.3084 218.93 27.4151C218.643 27.5151 218.387 27.6351 218.16 27.7751C217.94 27.9151 217.763 28.0851 217.63 28.2851C217.503 28.4851 217.44 28.7284 217.44 29.0151C217.44 29.2951 217.51 29.5551 217.65 29.7951C217.79 30.0284 218.003 30.2151 218.29 30.3551C218.577 30.4951 218.943 30.5651 219.39 30.5651ZM240.297 31.9751L240.307 25.2451C240.307 24.4651 240.107 23.8584 239.707 23.4251C239.307 22.9851 238.78 22.7651 238.127 22.7651C237.727 22.7651 237.36 22.8584 237.027 23.0451C236.7 23.2251 236.433 23.4984 236.227 23.8651C236.027 24.2251 235.927 24.6784 235.927 25.2251L234.917 24.7151C234.903 23.9551 235.063 23.2884 235.397 22.7151C235.737 22.1418 236.197 21.6984 236.777 21.3851C237.357 21.0651 238.007 20.9051 238.727 20.9051C239.893 20.9051 240.797 21.2551 241.437 21.9551C242.077 22.6551 242.397 23.5851 242.397 24.7451L242.387 31.9751H240.297ZM227.347 31.9751V21.1751H229.207V24.2951H229.447V31.9751H227.347ZM233.827 31.9751L233.837 25.2851C233.837 24.4984 233.637 23.8818 233.237 23.4351C232.843 22.9884 232.313 22.7651 231.647 22.7651C230.987 22.7651 230.453 22.9918 230.047 23.4451C229.647 23.8984 229.447 24.4918 229.447 25.2251L228.447 24.5851C228.447 23.8784 228.617 23.2484 228.957 22.6951C229.297 22.1418 229.757 21.7051 230.337 21.3851C230.917 21.0651 231.573 20.9051 232.307 20.9051C233.073 20.9051 233.727 21.0684 234.267 21.3951C234.807 21.7151 235.217 22.1651 235.497 22.7451C235.783 23.3251 235.927 23.9984 235.927 24.7651L235.917 31.9751H233.827ZM249.647 32.2751C248.573 32.2751 247.63 32.0418 246.817 31.5751C246.01 31.1018 245.38 30.4451 244.927 29.6051C244.48 28.7584 244.257 27.7784 244.257 26.6651C244.257 25.4851 244.477 24.4618 244.917 23.5951C245.363 22.7284 245.983 22.0584 246.777 21.5851C247.57 21.1118 248.493 20.8751 249.547 20.8751C250.647 20.8751 251.583 21.1318 252.357 21.6451C253.13 22.1518 253.707 22.8751 254.087 23.8151C254.473 24.7551 254.627 25.8718 254.547 27.1651H252.457V26.4051C252.443 25.1518 252.203 24.2251 251.737 23.6251C251.277 23.0251 250.573 22.7251 249.627 22.7251C248.58 22.7251 247.793 23.0551 247.267 23.7151C246.74 24.3751 246.477 25.3284 246.477 26.5751C246.477 27.7618 246.74 28.6818 247.267 29.3351C247.793 29.9818 248.553 30.3051 249.547 30.3051C250.2 30.3051 250.763 30.1584 251.237 29.8651C251.717 29.5651 252.09 29.1384 252.357 28.5851L254.407 29.2351C253.987 30.2018 253.35 30.9518 252.497 31.4851C251.643 32.0118 250.693 32.2751 249.647 32.2751ZM245.797 27.1651V25.5351H253.507V27.1651H245.797ZM264.077 31.9751V26.6651C264.077 26.2451 264.041 25.8151 263.967 25.3751C263.901 24.9284 263.767 24.5151 263.567 24.1351C263.374 23.7551 263.097 23.4484 262.737 23.2151C262.384 22.9818 261.921 22.8651 261.347 22.8651C260.974 22.8651 260.621 22.9284 260.287 23.0551C259.954 23.1751 259.661 23.3718 259.407 23.6451C259.161 23.9184 258.964 24.2784 258.817 24.7251C258.677 25.1718 258.607 25.7151 258.607 26.3551L257.307 25.8651C257.307 24.8851 257.491 24.0218 257.857 23.2751C258.224 22.5218 258.751 21.9351 259.437 21.5151C260.124 21.0951 260.954 20.8851 261.927 20.8851C262.674 20.8851 263.301 21.0051 263.807 21.2451C264.314 21.4851 264.724 21.8018 265.037 22.1951C265.357 22.5818 265.601 23.0051 265.767 23.4651C265.934 23.9251 266.047 24.3751 266.107 24.8151C266.167 25.2551 266.197 25.6418 266.197 25.9751V31.9751H264.077ZM256.487 31.9751V21.1751H258.357V24.2951H258.607V31.9751H256.487ZM274.982 31.9751C274.302 32.1084 273.635 32.1651 272.982 32.1451C272.329 32.1251 271.745 31.9984 271.232 31.7651C270.719 31.5318 270.332 31.1651 270.072 30.6651C269.839 30.2184 269.712 29.7651 269.692 29.3051C269.679 28.8384 269.672 28.3118 269.672 27.7251V18.1751H271.772V27.6251C271.772 28.0584 271.775 28.4351 271.782 28.7551C271.795 29.0751 271.865 29.3451 271.992 29.5651C272.232 29.9784 272.612 30.2151 273.132 30.2751C273.659 30.3284 274.275 30.3051 274.982 30.2051V31.9751ZM267.602 22.8551V21.1751H274.982V22.8551H267.602ZM281.561 32.2751C280.487 32.2751 279.544 32.0418 278.731 31.5751C277.924 31.1018 277.294 30.4451 276.841 29.6051C276.394 28.7584 276.171 27.7784 276.171 26.6651C276.171 25.4851 276.391 24.4618 276.831 23.5951C277.277 22.7284 277.897 22.0584 278.691 21.5851C279.484 21.1118 280.407 20.8751 281.461 20.8751C282.561 20.8751 283.497 21.1318 284.271 21.6451C285.044 22.1518 285.621 22.8751 286.001 23.8151C286.387 24.7551 286.541 25.8718 286.461 27.1651H284.371V26.4051C284.357 25.1518 284.117 24.2251 283.651 23.6251C283.191 23.0251 282.487 22.7251 281.541 22.7251C280.494 22.7251 279.707 23.0551 279.181 23.7151C278.654 24.3751 278.391 25.3284 278.391 26.5751C278.391 27.7618 278.654 28.6818 279.181 29.3351C279.707 29.9818 280.467 30.3051 281.461 30.3051C282.114 30.3051 282.677 30.1584 283.151 29.8651C283.631 29.5651 284.004 29.1384 284.271 28.5851L286.321 29.2351C285.901 30.2018 285.264 30.9518 284.411 31.4851C283.557 32.0118 282.607 32.2751 281.561 32.2751ZM277.711 27.1651V25.5351H285.421V27.1651H277.711ZM289.504 30.5751V28.3651H291.714V30.5751H289.504ZM289.514 24.7851V22.5751H291.724V24.7851H289.514Z" fill="#639FD5"/>
<path d="M88.5 110C88.5 104.753 92.7533 100.5 98 100.5H235C240.247 100.5 244.5 104.753 244.5 110V146C244.5 151.247 240.247 155.5 235 155.5H98C92.7533 155.5 88.5 151.247 88.5 146V110Z" fill="#55748F" stroke="#C6C6C6"/>
<path d="M143.263 132V121.2H149.66V122.767H144.83V125.812H148.76V127.387H144.83V132H143.263ZM154.385 132.225C153.58 132.225 152.872 132.05 152.262 131.7C151.657 131.345 151.185 130.852 150.845 130.222C150.51 129.587 150.342 128.852 150.342 128.017C150.342 127.132 150.507 126.365 150.837 125.715C151.172 125.065 151.637 124.562 152.232 124.207C152.827 123.852 153.52 123.675 154.31 123.675C155.135 123.675 155.837 123.867 156.417 124.253C156.997 124.632 157.43 125.175 157.715 125.88C158.005 126.585 158.12 127.422 158.06 128.392H156.492V127.822C156.482 126.882 156.302 126.187 155.952 125.737C155.607 125.287 155.08 125.062 154.37 125.062C153.585 125.062 152.995 125.31 152.6 125.805C152.205 126.3 152.007 127.015 152.007 127.95C152.007 128.84 152.205 129.53 152.6 130.02C152.995 130.505 153.565 130.747 154.31 130.747C154.8 130.747 155.222 130.637 155.577 130.417C155.937 130.192 156.217 129.872 156.417 129.457L157.955 129.945C157.64 130.67 157.162 131.232 156.522 131.632C155.882 132.027 155.17 132.225 154.385 132.225ZM151.497 128.392V127.17H157.28V128.392H151.497ZM163.207 132.225C162.377 132.225 161.672 132.04 161.092 131.67C160.512 131.3 160.067 130.792 159.757 130.147C159.452 129.502 159.297 128.77 159.292 127.95C159.297 127.115 159.457 126.377 159.772 125.737C160.087 125.092 160.537 124.587 161.122 124.222C161.707 123.857 162.41 123.675 163.23 123.675C164.115 123.675 164.87 123.895 165.495 124.335C166.125 124.775 166.54 125.377 166.74 126.142L165.18 126.592C165.025 126.137 164.77 125.785 164.415 125.535C164.065 125.28 163.662 125.152 163.207 125.152C162.692 125.152 162.27 125.275 161.94 125.52C161.61 125.76 161.365 126.09 161.205 126.51C161.045 126.93 160.962 127.41 160.957 127.95C160.962 128.785 161.152 129.46 161.527 129.975C161.907 130.49 162.467 130.747 163.207 130.747C163.712 130.747 164.12 130.632 164.43 130.402C164.745 130.167 164.985 129.832 165.15 129.397L166.74 129.772C166.475 130.562 166.037 131.17 165.427 131.595C164.817 132.015 164.077 132.225 163.207 132.225ZM173.953 132V128.017C173.953 127.702 173.925 127.38 173.87 127.05C173.82 126.715 173.72 126.405 173.57 126.12C173.425 125.835 173.218 125.605 172.948 125.43C172.683 125.255 172.335 125.167 171.905 125.167C171.625 125.167 171.36 125.215 171.11 125.31C170.86 125.4 170.64 125.547 170.45 125.752C170.265 125.957 170.118 126.227 170.008 126.562C169.903 126.897 169.85 127.305 169.85 127.785L168.875 127.417C168.875 126.682 169.013 126.035 169.288 125.475C169.563 124.91 169.958 124.47 170.473 124.155C170.988 123.84 171.61 123.682 172.34 123.682C172.9 123.682 173.37 123.772 173.75 123.952C174.13 124.132 174.438 124.37 174.673 124.665C174.913 124.955 175.095 125.272 175.22 125.617C175.345 125.962 175.43 126.3 175.475 126.63C175.52 126.96 175.543 127.25 175.543 127.5V132H173.953ZM168.26 132V121.2H169.663V127.027H169.85V132H168.26ZM179.784 132.225C179.184 132.225 178.681 132.115 178.276 131.895C177.871 131.67 177.564 131.375 177.354 131.01C177.149 130.64 177.046 130.235 177.046 129.795C177.046 129.385 177.119 129.025 177.264 128.715C177.409 128.405 177.624 128.142 177.909 127.927C178.194 127.707 178.544 127.53 178.959 127.395C179.319 127.29 179.726 127.197 180.181 127.117C180.636 127.037 181.114 126.962 181.614 126.892C182.119 126.822 182.619 126.752 183.114 126.682L182.544 126.997C182.554 126.362 182.419 125.892 182.139 125.587C181.864 125.277 181.389 125.122 180.714 125.122C180.289 125.122 179.899 125.222 179.544 125.422C179.189 125.617 178.941 125.942 178.801 126.397L177.339 125.947C177.539 125.252 177.919 124.7 178.479 124.29C179.044 123.88 179.794 123.675 180.729 123.675C181.454 123.675 182.084 123.8 182.619 124.05C183.159 124.295 183.554 124.685 183.804 125.22C183.934 125.485 184.014 125.765 184.044 126.06C184.074 126.355 184.089 126.672 184.089 127.012V132H182.701V130.147L182.971 130.387C182.636 131.007 182.209 131.47 181.689 131.775C181.174 132.075 180.539 132.225 179.784 132.225ZM180.061 130.942C180.506 130.942 180.889 130.865 181.209 130.71C181.529 130.55 181.786 130.347 181.981 130.102C182.176 129.857 182.304 129.602 182.364 129.337C182.449 129.097 182.496 128.827 182.506 128.527C182.521 128.227 182.529 127.987 182.529 127.807L183.039 127.995C182.544 128.07 182.094 128.137 181.689 128.197C181.284 128.257 180.916 128.317 180.586 128.377C180.261 128.432 179.971 128.5 179.716 128.58C179.501 128.655 179.309 128.745 179.139 128.85C178.974 128.955 178.841 129.082 178.741 129.232C178.646 129.382 178.599 129.565 178.599 129.78C178.599 129.99 178.651 130.185 178.756 130.365C178.861 130.54 179.021 130.68 179.236 130.785C179.451 130.89 179.726 130.942 180.061 130.942ZM186.036 132V123.9H187.431V125.865L187.236 125.61C187.336 125.35 187.466 125.112 187.626 124.897C187.786 124.677 187.971 124.497 188.181 124.357C188.386 124.207 188.614 124.092 188.864 124.012C189.119 123.927 189.379 123.877 189.644 123.862C189.909 123.842 190.164 123.855 190.409 123.9V125.37C190.144 125.3 189.849 125.28 189.524 125.31C189.204 125.34 188.909 125.442 188.639 125.617C188.384 125.782 188.181 125.982 188.031 126.217C187.886 126.452 187.781 126.715 187.716 127.005C187.651 127.29 187.619 127.592 187.619 127.912V132H186.036Z" fill="white"/>
</svg>
